<svg width="132" height="10" viewBox="0 0 132 10" fill="none" xmlns="http://www.w3.org/2000/svg">
<g clip-path="url(#clip0_19_24726)">
<path fill-rule="evenodd" clip-rule="evenodd" d="M130.494 0.329171C130.126 0.224305 129.744 0.176458 129.361 0.187287H120.022V1.8899H129.859V8.01927H121.734V4.04654H120.033V9.66513H129.247C129.627 9.67167 130.007 9.6412 130.381 9.57433C130.639 9.54533 130.883 9.44293 131.084 9.2792C131.268 9.1344 131.403 8.93613 131.469 8.71167C131.575 8.3566 131.623 7.98673 131.611 7.61633V2.42906C131.617 2.07312 131.587 1.71749 131.521 1.36777C131.455 1.12201 131.337 0.89346 131.175 0.698073C130.99 0.516141 130.758 0.388541 130.506 0.329171H130.494ZM97.7225 9.65947V7.95687H101.799V1.88422H97.7225V0.181611H101.306C101.69 0.17006 102.072 0.217921 102.44 0.323496C102.695 0.376199 102.928 0.504779 103.11 0.692393C103.281 0.880973 103.398 1.11231 103.449 1.36209C103.526 1.71045 103.558 2.06698 103.546 2.42338V7.40633C103.555 7.7654 103.507 8.1236 103.404 8.46767C103.331 8.72927 103.183 8.96393 102.979 9.143C102.781 9.32733 102.539 9.45653 102.276 9.5176C101.907 9.6186 101.524 9.6664 101.142 9.65947H97.7225ZM107.646 10V2.16231L108.02 2.57094L114.864 9.9092C115.04 9.9092 115.21 9.9092 115.363 9.9092C115.53 9.8968 115.697 9.876 115.862 9.84673C115.995 9.81447 116.126 9.77273 116.253 9.72193C116.354 9.6664 116.448 9.59773 116.531 9.5176C116.613 9.43547 116.681 9.34173 116.735 9.23953C116.799 9.1042 116.85 8.96367 116.888 8.81953C116.925 8.64913 116.952 8.47667 116.968 8.30307C116.983 8.09147 116.983 7.879 116.968 7.6674V0.0794547H115.267V7.83767L114.892 7.44607L108.066 0.170261C107.879 0.170261 107.708 0.170261 107.55 0.170261C107.382 0.180901 107.215 0.20175 107.051 0.23269C106.918 0.262347 106.79 0.304144 106.665 0.357548C106.563 0.413066 106.469 0.479686 106.381 0.556186C106.305 0.643141 106.239 0.738313 106.183 0.839953C106.12 0.97612 106.068 1.11645 106.024 1.25993C105.989 1.43038 105.964 1.60287 105.95 1.77639C105.921 1.9869 105.91 2.19957 105.916 2.41203V10H107.646ZM97.7225 0.187287V1.8899H93.6288V7.96253H97.7225V9.66513H94.2243C93.8413 9.67133 93.4596 9.62353 93.09 9.52327C92.8349 9.45833 92.6011 9.3294 92.4093 9.14867C92.2254 8.96447 92.0955 8.7326 92.0356 8.479C91.9383 8.134 91.8964 7.77587 91.9104 7.41773V2.42906C91.9004 2.07471 91.9523 1.72132 92.0636 1.38479C92.1435 1.12507 92.2954 0.89306 92.5005 0.715093C92.7043 0.522215 92.9574 0.388778 93.2318 0.329171C93.5915 0.227635 93.9639 0.179825 94.3375 0.187287H97.7225ZM30.7872 5.90238V4.19977H34.297V1.90125H30.7872V0.170261H33.7754C33.9909 0.170261 34.195 0.170261 34.3821 0.170261C34.544 0.180861 34.7049 0.201712 34.8641 0.23269C35.0017 0.262433 35.1364 0.304213 35.2667 0.357548C35.476 0.460875 35.6454 0.630442 35.7487 0.839953C35.8053 0.976613 35.8526 1.11692 35.8904 1.25993C35.94 1.42811 35.9705 1.60137 35.9811 1.77639C35.9811 1.96368 36.0152 2.17934 36.0152 2.41203V10H34.297V5.90238H30.7872ZM40.7472 9.92053V2.08853L41.1214 2.49149L47.9711 9.82973C48.1411 9.82973 48.3113 9.82973 48.47 9.82973C48.6356 9.81947 48.8004 9.7986 48.9633 9.76733C49.0975 9.73847 49.2286 9.69667 49.3546 9.64247C49.5639 9.53913 49.7334 9.36953 49.8366 9.16007C49.8991 9.02387 49.9522 8.88353 49.9953 8.74007C50.0306 8.5696 50.0552 8.39713 50.0691 8.2236C50.0986 8.01307 50.11 7.8004 50.1031 7.588V0H48.3737V7.7582L47.9994 7.3666L41.1951 0.090806C41.008 0.090806 40.8379 0.090806 40.6848 0.090806C40.5317 0.090806 40.3389 0.124857 40.1858 0.153234C40.0526 0.185521 39.9219 0.227246 39.7945 0.278093C39.6933 0.333591 39.5999 0.402295 39.5167 0.482407C39.4354 0.564542 39.3666 0.65825 39.3126 0.7605C39.2496 0.89582 39.1984 1.03633 39.1595 1.18047C39.1226 1.35086 39.0961 1.52333 39.0801 1.69693C39.0649 1.90854 39.0649 2.12097 39.0801 2.33257V9.92053H40.7472ZM68.2344 3.8933V1.88422H74.9537L76.5069 0.153234H68.8638C68.4809 0.146311 68.0992 0.194087 67.7295 0.295119C67.4691 0.362523 67.228 0.490901 67.0268 0.669693C66.8337 0.858927 66.6951 1.09589 66.6239 1.35641C66.5212 1.70439 66.4733 2.0663 66.4822 2.42906V7.38367C66.4785 7.73973 66.5108 8.09533 66.5786 8.44493C66.6418 8.69033 66.7577 8.91893 66.9189 9.11467C67.1048 9.2954 67.3359 9.4228 67.5877 9.48353C67.9573 9.58167 68.3397 9.62373 68.722 9.6084H76.473V7.9058H68.2571V5.82293H72.793V4.12032H68.2571V3.91601L68.2344 3.8933ZM87.1333 2.08853V4.18842H79.0586V9.65947H80.8051V5.90238H86.6345C86.8669 5.90238 87.0881 5.90239 87.2752 5.87401C87.4624 5.84563 87.6489 5.81158 87.8021 5.77753C87.942 5.74263 88.0772 5.69119 88.205 5.62429C88.3189 5.5793 88.4215 5.50951 88.5054 5.41997C88.5867 5.34601 88.6506 5.25491 88.6926 5.15323C88.7492 5.03039 88.7892 4.90063 88.8118 4.76731C88.8451 4.60845 88.8665 4.44713 88.8738 4.2849C88.8738 4.09761 88.8738 3.8933 88.8738 3.67764V2.42906V2.22475C88.8738 2.17934 88.8738 2.11691 88.8738 2.05448C88.8598 1.81898 88.8232 1.58531 88.7665 1.35641C88.7539 1.31924 88.7392 1.28317 88.7206 1.24858L88.6753 1.12372C88.608 0.962147 88.5121 0.8141 88.3922 0.68672C88.3036 0.605177 88.2044 0.536406 88.0971 0.482407C87.9626 0.418407 87.8221 0.367107 87.6775 0.329171C87.5243 0.295119 87.3485 0.249716 87.15 0.221339C86.9515 0.192962 86.7417 0.170261 86.5266 0.170261H77.5054L79.0586 1.87287H87.156V2.09421L87.1333 2.08853ZM54.8691 7.7242V1.94665H64.1513V0.215663H55.4928C55.1108 0.201843 54.7287 0.243906 54.3588 0.340522C54.0898 0.404351 53.8429 0.539637 53.6443 0.73212C53.4496 0.92052 53.3086 1.15761 53.2361 1.41884C53.1382 1.76774 53.0924 2.12919 53.1 2.49149V7.42907C53.0932 7.785 53.1236 8.14073 53.1907 8.49033C53.2514 8.73673 53.3678 8.9658 53.5309 9.16007C53.7214 9.33833 53.9504 9.4704 54.2 9.546C54.5714 9.6344 54.9523 9.6764 55.3341 9.6708H61.8832C62.2651 9.67847 62.6463 9.63647 63.0173 9.546C63.2693 9.48527 63.5004 9.35787 63.6864 9.17707C63.8601 8.98767 63.983 8.75727 64.0436 8.5074C64.1249 8.15393 64.161 7.7916 64.1513 7.42907V4.18842H58.5491V5.89103H62.1327V7.93413H54.8691V7.7242ZM30.7872 0.170261V1.90125H27.3V4.17139H27.4928H30.7645V5.87401H27.3V9.9716H25.5989V2.55391C25.5989 2.32123 25.5989 2.11691 25.6613 1.91827C25.6818 1.73893 25.7121 1.56084 25.752 1.38479C25.7927 1.24046 25.8458 1.09993 25.9107 0.964813C25.9648 0.864047 26.0316 0.770593 26.1092 0.68672C26.2325 0.558754 26.3812 0.458199 26.5458 0.391599L26.6706 0.340522C26.7135 0.338082 26.7556 0.32849 26.7953 0.312145C27.0235 0.249 27.2569 0.207201 27.4928 0.187287H27.6629C27.725 0.178875 27.7879 0.178875 27.85 0.187287H30.7929L30.7872 0.170261ZM1.73509 7.83767V1.99205H9.82653V0.289444H2.37017C2.1547 0.289444 1.93355 0.323495 1.74644 0.351872C1.5687 0.37222 1.39254 0.404453 1.21911 0.448353C1.07509 0.487249 0.934703 0.538518 0.799505 0.601589C0.693041 0.657029 0.593974 0.725673 0.504653 0.8059C0.38652 0.934773 0.2907 1.08247 0.22114 1.24291C0.210379 1.28599 0.195176 1.32783 0.175778 1.36777C0.156992 1.40795 0.141812 1.44974 0.130416 1.49262C0.0691343 1.71172 0.0273888 1.93583 0.00567025 2.16231C-0.00189008 2.21881 -0.00189008 2.27607 0.00567025 2.33257V2.53689V7.51987C0.00567025 7.7412 0.00567025 7.94553 0.00567025 8.12713C0.0131088 8.29127 0.0339694 8.45447 0.0680432 8.6152C0.0898962 8.75487 0.131918 8.8906 0.192789 9.01813C0.232053 9.12127 0.296362 9.21293 0.379906 9.28493C0.462426 9.372 0.563095 9.4398 0.674758 9.48353C0.803588 9.54927 0.9384 9.60247 1.07735 9.64247L1.59334 9.73327C1.7918 9.73327 2.01294 9.76733 2.24542 9.76733H9.82653V8.05333H1.73509V7.83767ZM13.9095 0.329171H12.1801V9.78433H13.9095V5.99887H20.8385V9.78433H22.5396V0.329171H20.8385V4.30193H13.9095V0.329171Z" fill="white"/>
</g>
<defs>
<clipPath id="clip0_19_24726">
<rect width="131.881" height="10" fill="white"/>
</clipPath>
</defs>
</svg>
