<svg width="264" height="20" viewBox="0 0 264 20" fill="none" xmlns="http://www.w3.org/2000/svg">
<path fill-rule="evenodd" clip-rule="evenodd" d="M260.995 0.658343C260.258 0.448611 259.493 0.352916 258.727 0.374575H240.049V3.7798H259.725V16.0385H243.474V8.09308H240.072V19.3303H258.499C259.26 19.3433 260.019 19.2824 260.768 19.1487C261.284 19.0907 261.771 18.8859 262.175 18.5584C262.543 18.2688 262.812 17.8723 262.945 17.4233C263.157 16.7132 263.253 15.9735 263.229 15.2327V4.85812C263.241 4.14624 263.181 3.43499 263.047 2.73553C262.917 2.24401 262.681 1.78692 262.356 1.39615C261.986 1.03228 261.522 0.777083 261.017 0.658343H260.995ZM195.45 19.3189V15.9137H203.604V3.76844H195.45V0.363223H202.617C203.384 0.34012 204.149 0.435843 204.885 0.646992C205.395 0.752399 205.862 1.00956 206.224 1.38479C206.566 1.76195 206.801 2.22463 206.903 2.72417C207.057 3.42091 207.121 4.13396 207.097 4.84676V14.8127C207.115 15.5308 207.019 16.2472 206.813 16.9353C206.666 17.4585 206.371 17.9279 205.963 18.286C205.567 18.6547 205.082 18.9131 204.556 19.0352C203.818 19.2372 203.053 19.3328 202.289 19.3189H195.45ZM215.297 20V4.32463L216.045 5.14188L229.734 19.8184C230.086 19.8184 230.425 19.8184 230.732 19.8184C231.066 19.7936 231.399 19.752 231.73 19.6935C231.996 19.6289 232.257 19.5455 232.512 19.4439C232.714 19.3328 232.902 19.1955 233.068 19.0352C233.231 18.8709 233.368 18.6835 233.476 18.4791C233.603 18.2084 233.705 17.9273 233.782 17.6391C233.856 17.2983 233.909 16.9533 233.941 16.6061C233.972 16.1829 233.972 15.758 233.941 15.3348V0.158909H230.539V15.6753L229.79 14.8921L216.137 0.340521C215.762 0.340521 215.421 0.340521 215.104 0.340521C214.77 0.361803 214.435 0.4035 214.106 0.46538C213.841 0.524695 213.584 0.608288 213.335 0.715096C213.131 0.826132 212.942 0.959372 212.768 1.11237C212.614 1.28628 212.483 1.47663 212.371 1.67991C212.245 1.95224 212.14 2.23289 212.054 2.51987C211.983 2.86076 211.934 3.20573 211.906 3.55277C211.847 3.9738 211.824 4.39913 211.838 4.82407V20H215.297ZM195.45 0.374575V3.7798H187.262V15.9251H195.45V19.3303H188.453C187.687 19.3427 186.924 19.2471 186.184 19.0465C185.674 18.9167 185.207 18.6588 184.823 18.2973C184.455 17.9289 184.195 17.4652 184.075 16.958C183.881 16.268 183.797 15.5517 183.825 14.8355V4.85812C183.805 4.14941 183.909 3.44264 184.131 2.76957C184.291 2.25015 184.595 1.78612 185.005 1.43019C185.413 1.04443 185.919 0.777556 186.468 0.658343C187.187 0.455271 187.932 0.359649 188.679 0.374575H195.45ZM61.5759 11.8048V8.39955H68.5957V3.80249H61.5759V0.340521H67.5523C67.9833 0.340521 68.3916 0.340521 68.7658 0.340521C69.0895 0.361721 69.4115 0.403424 69.7299 0.46538C70.005 0.524867 70.2745 0.608425 70.5351 0.715096C70.9536 0.921751 71.2925 1.26088 71.499 1.67991C71.6122 1.95323 71.707 2.23384 71.7825 2.51987C71.8817 2.85623 71.9426 3.20273 71.9639 3.55277C71.9639 3.92736 72.032 4.35868 72.032 4.82407V20H68.5957V11.8048H61.5759ZM81.4962 19.8411V4.17707L82.2448 4.98297L95.9444 19.6595C96.2845 19.6595 96.6248 19.6595 96.9424 19.6595C97.2735 19.6389 97.6031 19.5972 97.929 19.5347C98.1973 19.4769 98.4594 19.3933 98.7115 19.2849C99.1302 19.0783 99.4691 18.7391 99.6754 18.3201C99.8005 18.0477 99.9067 17.7671 99.993 17.4801C100.064 17.1392 100.113 16.7943 100.14 16.4472C100.2 16.0261 100.222 15.6008 100.209 15.176V0H96.7496V15.5164L96.0011 14.7332L82.3922 0.181612C82.0179 0.181612 81.6777 0.181612 81.3715 0.181612C81.0653 0.181612 80.6797 0.249715 80.3735 0.306468C80.107 0.371043 79.8457 0.454492 79.591 0.556185C79.3885 0.667181 79.2017 0.804591 79.0353 0.964813C78.8727 1.12908 78.735 1.3165 78.627 1.521C78.501 1.79164 78.3985 2.07267 78.3209 2.36095C78.2471 2.70172 78.1941 3.04667 78.1621 3.39387C78.1317 3.81708 78.1317 4.24193 78.1621 4.66515V19.8411H81.4962ZM136.472 7.7866V3.76844H149.911L153.017 0.306468H137.731C136.965 0.292621 136.202 0.388173 135.462 0.590237C134.941 0.725047 134.459 0.981803 134.057 1.33939C133.67 1.71785 133.393 2.19179 133.251 2.71283C133.045 3.40879 132.95 4.1326 132.968 4.85812V14.7673C132.96 15.4795 133.025 16.1907 133.16 16.8899C133.287 17.3807 133.519 17.8379 133.841 18.2293C134.213 18.5908 134.675 18.8456 135.178 18.9671C135.918 19.1633 136.683 19.2475 137.447 19.2168H152.95V15.8116H136.517V11.6459H145.589V8.24064H136.517V7.83201L136.472 7.7866ZM174.271 4.17707V8.37684H158.121V19.3189H161.614V11.8048H173.273C173.738 11.8048 174.18 11.8048 174.555 11.748C174.929 11.6913 175.302 11.6232 175.608 11.5551C175.888 11.4853 176.158 11.3824 176.414 11.2486C176.642 11.1586 176.847 11.019 177.015 10.8399C177.178 10.692 177.305 10.5098 177.389 10.3065C177.503 10.0608 177.583 9.80127 177.628 9.53461C177.694 9.21691 177.737 8.89425 177.752 8.5698C177.752 8.19523 177.752 7.7866 177.752 7.35528V4.85812V4.44949C177.752 4.35868 177.752 4.23383 177.752 4.10896C177.724 3.63796 177.65 3.17061 177.537 2.71283C177.512 2.63848 177.483 2.56633 177.445 2.49716L177.355 2.24744C177.22 1.92429 177.028 1.6282 176.789 1.37344C176.611 1.21035 176.413 1.07281 176.198 0.964813C175.929 0.836813 175.648 0.734213 175.359 0.658343C175.053 0.590239 174.701 0.499432 174.304 0.442679C173.907 0.385924 173.487 0.340521 173.057 0.340521H155.014L158.121 3.74575H174.316V4.18843L174.271 4.17707ZM109.741 15.4484V3.89331H128.306V0.431327H110.988C110.224 0.403685 109.46 0.487812 108.72 0.681044C108.182 0.808701 107.688 1.07927 107.291 1.46424C106.902 1.84104 106.62 2.31521 106.475 2.83768C106.279 3.53548 106.187 4.25837 106.202 4.98297V14.8581C106.189 15.57 106.25 16.2815 106.384 16.9807C106.505 17.4735 106.738 17.9316 107.064 18.3201C107.445 18.6767 107.903 18.9408 108.403 19.092C109.145 19.2688 109.907 19.3528 110.671 19.3416H123.769C124.533 19.3569 125.295 19.2729 126.037 19.092C126.542 18.9705 127.004 18.7157 127.376 18.3541C127.723 17.9753 127.969 17.5145 128.09 17.0148C128.253 16.3079 128.325 15.5832 128.306 14.8581V8.37684H117.101V11.7821H124.268V15.8683H109.741V15.4484ZM61.5759 0.340521V3.80249H54.6012V8.34279H54.9869H61.5304V11.748H54.6012V19.9432H51.199V5.10783C51.199 4.64245 51.199 4.23383 51.3238 3.83655C51.3648 3.47785 51.4255 3.12168 51.5053 2.76957C51.5865 2.48092 51.6928 2.19987 51.8227 1.92963C51.9309 1.72809 52.0644 1.54119 52.2197 1.37344C52.4661 1.11751 52.7636 0.916397 53.0929 0.783199L53.3424 0.681044C53.4282 0.676164 53.5126 0.65698 53.592 0.624289C54.0482 0.498 54.5151 0.414403 54.9869 0.374575H55.3271C55.4512 0.357749 55.5771 0.357749 55.7013 0.374575H61.5872L61.5759 0.340521ZM3.47027 15.6753V3.98411H19.6535V0.578888H4.74045C4.30949 0.578888 3.8672 0.646991 3.49296 0.703744C3.13748 0.74444 2.78514 0.808905 2.43827 0.896707C2.15023 0.974499 1.86945 1.07704 1.59905 1.20318C1.38611 1.31406 1.18798 1.45135 1.00933 1.6118C0.773058 1.86955 0.581413 2.16493 0.44229 2.48581C0.420767 2.57197 0.390362 2.65565 0.351564 2.73553C0.313992 2.81591 0.283631 2.89948 0.260837 2.98524C0.138272 3.42344 0.0547789 3.87167 0.0113408 4.32463C-0.00378025 4.43763 -0.00378025 4.55215 0.0113408 4.66515V5.07377V15.0397C0.0113408 15.4824 0.0113408 15.8911 0.0113408 16.2543C0.0262181 16.5825 0.0679404 16.9089 0.13609 17.2304C0.179797 17.5097 0.263841 17.7812 0.385586 18.0363C0.464116 18.2425 0.592739 18.4259 0.759831 18.5699C0.924874 18.744 1.12622 18.8796 1.34955 18.9671C1.60721 19.0985 1.87684 19.2049 2.15475 19.2849L3.18676 19.4665C3.58368 19.4665 4.02597 19.5347 4.49095 19.5347H19.6535V16.1067H3.47027V15.6753ZM27.8197 0.658343H24.3607V19.5687H27.8197V11.9977H41.678V19.5687H45.0802V0.658343H41.678V8.60385H27.8197V0.658343Z" fill="#00205B"/>
</svg>
